<?xml version="1.0" standalone="no"?>
<!DOCTYPE svg PUBLIC "-//W3C//DTD SVG 20010904//EN"
 "http://www.w3.org/TR/2001/REC-SVG-20010904/DTD/svg10.dtd">
<svg version="1.0" xmlns="http://www.w3.org/2000/svg"
 width="500.000000pt" height="500.000000pt" viewBox="0 0 500.000000 500.000000"
 preserveAspectRatio="xMidYMid meet">

<g transform="translate(0.000000,500.000000) scale(0.100000,-0.100000)"
fill="#000000" stroke="none">
<path d="M2268 4186 l-38 -45 0 -1201 0 -1201 -21 3 -21 3 2 1168 c0 731 -3
1167 -9 1167 -5 0 -23 -18 -40 -39 l-31 -39 0 -1136 c0 -683 -4 -1136 -9
-1136 -5 0 -16 -3 -25 -6 -15 -6 -16 96 -16 1107 l-1 1114 -39 -44 -40 -44 0
-1073 0 -1074 -25 0 -25 0 0 1042 0 1043 -32 -33 -33 -32 -5 -1017 -5 -1016
-130 -24 c-147 -27 -388 -83 -382 -89 2 -3 60 5 128 16 662 107 1542 104 2112
-6 43 -9 81 -14 83 -11 6 6 -184 69 -271 91 -246 61 -581 93 -892 83 l-193 -6
-2 1240 -3 1240 -37 -45z"/>
<path d="M2721 4154 c-23 -42 -40 -78 -38 -80 3 -3 43 -4 91 -2 l86 3 -43 72
c-24 40 -46 75 -48 78 -3 2 -24 -30 -48 -71z"/>
<path d="M2611 3940 l-51 -90 21 -43 c12 -23 36 -64 54 -92 l32 -50 104 0 103
0 52 92 52 91 -51 91 -50 91 -108 0 -107 0 -51 -90z"/>
<path d="M2477 3732 c-26 -42 -47 -81 -47 -85 0 -4 43 -7 95 -7 52 0 95 3 95
8 0 8 -89 162 -93 162 -2 0 -24 -35 -50 -78z"/>
<path d="M2957 3729 c-27 -44 -47 -83 -44 -85 2 -3 47 -3 100 -2 l96 3 -47 82
c-26 45 -49 82 -52 82 -3 0 -27 -36 -53 -80z"/>
<path d="M249 2833 c-1 -9 0 -6 -35 -133 l-27 -95 -4 -515 -4 -515 683 -657
683 -658 960 1 960 0 188 183 c109 106 189 193 192 206 4 22 2 21 -28 -8 -19
-18 -36 -29 -40 -26 -4 4 -7 1 -7 -6 0 -7 -3 -11 -6 -7 -10 10 -69 -34 -200
-152 l-123 -111 -935 0 -935 0 -656 631 -655 630 -1 607 c-1 334 -1 613 0 620
1 6 -1 12 -4 12 -3 0 -5 -3 -6 -7z"/>
<path d="M1313 1459 c-62 -18 -83 -90 -40 -133 15 -15 41 -26 73 -30 27 -4 59
-14 72 -22 27 -18 29 -59 3 -74 -28 -15 -111 -12 -143 4 -27 14 -28 14 -28 -9
0 -61 186 -59 219 3 32 60 -6 116 -85 127 -27 4 -59 14 -71 21 -30 19 -30 59
-2 75 22 11 109 8 142 -6 13 -5 17 -2 17 13 0 11 -7 22 -15 26 -31 11 -111 15
-142 5z"/>
<path d="M2345 1459 c-88 -25 -127 -145 -79 -240 28 -56 116 -82 199 -59 l45
13 0 68 0 69 -55 0 c-48 0 -55 -2 -55 -20 0 -17 7 -20 41 -20 l40 0 -3 -37 -3
-38 -61 -3 c-49 -2 -65 1 -87 18 -58 46 -58 154 0 199 31 25 114 28 153 6 34
-20 38 -19 33 9 -4 20 -14 27 -55 35 -56 13 -71 13 -113 0z"/>
<path d="M2950 1457 c-54 -19 -80 -67 -80 -146 0 -49 5 -75 20 -99 53 -86 195
-78 240 13 33 68 10 185 -43 219 -32 22 -97 28 -137 13z m125 -51 c45 -45 45
-147 0 -192 -29 -29 -98 -33 -132 -9 -50 35 -53 152 -6 199 35 36 103 36 138
2z"/>
<path d="M1550 1310 l0 -150 86 0 c81 0 87 1 115 29 40 40 39 83 -1 121 -26
24 -28 29 -15 40 8 7 15 27 15 46 0 49 -28 64 -122 64 l-78 0 0 -150z m148
104 c26 -18 28 -31 5 -56 -11 -13 -30 -18 -65 -18 l-48 0 0 45 0 45 43 0 c23
0 53 -7 65 -16z m30 -126 c7 -7 12 -24 12 -39 0 -39 -33 -59 -97 -59 l-53 0 0
55 0 55 63 0 c36 0 68 -5 75 -12z"/>
<path d="M1840 1310 c0 -143 1 -150 20 -150 18 0 20 7 20 60 0 60 0 60 29 60
24 0 40 -12 82 -60 37 -43 59 -60 76 -60 23 0 20 5 -30 62 l-55 61 29 28 c38
36 40 89 4 124 -21 22 -33 25 -100 25 l-75 0 0 -150z m138 104 c26 -18 30 -65
6 -84 -8 -8 -34 -14 -57 -14 l-42 -1 -3 58 -3 57 38 0 c21 0 49 -7 61 -16z"/>
<path d="M2580 1310 c0 -143 1 -150 20 -150 18 0 20 7 20 60 l0 60 33 -1 c27
0 40 -10 80 -60 36 -43 55 -59 74 -59 23 0 21 4 -30 63 l-55 62 29 26 c38 35
40 89 4 124 -21 22 -33 25 -100 25 l-75 0 0 -150z m134 110 c21 -8 26 -16 26
-44 0 -43 -20 -59 -73 -60 l-42 -1 -3 44 c-2 24 -1 50 2 57 6 16 53 18 90 4z"/>
<path d="M3210 1345 c0 -131 11 -165 60 -185 44 -18 108 -7 139 24 25 25 26
32 29 151 4 121 3 125 -17 125 -20 0 -21 -5 -21 -113 0 -138 -9 -157 -74 -157
-70 0 -80 20 -84 156 -3 90 -7 114 -18 114 -11 0 -14 -23 -14 -115z"/>
<path d="M3520 1310 c0 -143 1 -150 20 -150 18 0 20 7 20 54 l0 53 53 6 c97
12 139 96 78 158 -27 27 -35 29 -100 29 l-71 0 0 -150z m145 100 c20 -17 19
-59 -2 -82 -11 -12 -30 -18 -60 -18 l-43 0 0 61 0 62 45 -5 c25 -3 52 -11 60
-18z"/>
<path d="M2130 943 c0 -42 2 -74 4 -72 10 11 16 149 7 149 -7 0 -11 -29 -11
-77z"/>
<path d="M2259 1003 c0 -10 -3 -44 -5 -75 -3 -35 0 -58 6 -58 6 0 10 31 10 75
0 41 -2 75 -5 75 -3 0 -5 -8 -6 -17z"/>
<path d="M3030 945 c0 -41 4 -75 9 -75 4 0 9 34 10 75 1 47 -2 75 -8 75 -7 0
-11 -29 -11 -75z"/>
<path d="M1837 1003 c-4 -3 -7 -35 -7 -69 0 -53 3 -64 20 -69 41 -13 78 33 49
62 -8 8 -7 17 3 32 11 19 11 24 -6 37 -21 15 -48 18 -59 7z m51 -35 c-5 -34
-38 -37 -38 -4 0 20 5 26 21 26 15 0 20 -5 17 -22z m2 -53 c15 -18 5 -35 -21
-35 -14 0 -19 7 -19 25 0 28 21 33 40 10z"/>
<path d="M2687 1003 c-11 -10 -8 -133 3 -133 6 0 10 14 10 30 0 17 4 30 9 30
5 0 19 -13 31 -30 12 -16 26 -30 31 -30 6 0 1 13 -11 30 -19 27 -20 31 -5 54
14 22 14 25 0 40 -17 16 -56 22 -68 9z m58 -23 c8 -13 -13 -40 -31 -40 -8 0
-14 10 -14 25 0 18 5 25 19 25 11 0 23 -5 26 -10z"/>
<path d="M3148 984 c-3 -2 -3 -28 0 -57 5 -51 17 -71 35 -60 5 3 2 10 -7 15
-21 12 -22 75 -1 80 13 2 12 5 -4 15 -10 6 -21 10 -23 7z"/>
<path d="M1952 923 c-2 -51 4 -60 33 -53 6 2 18 2 28 2 14 -1 17 8 16 51 -1
52 -1 52 -11 17 -6 -19 -12 -41 -14 -47 -2 -7 -12 -13 -23 -13 -17 0 -21 8
-24 48 l-3 47 -2 -52z"/>
<path d="M2070 920 c0 -27 5 -50 10 -50 6 0 10 23 10 50 0 28 -4 50 -10 50 -5
0 -10 -22 -10 -50z"/>
<path d="M2192 958 c-7 -7 -12 -27 -12 -45 0 -36 26 -58 51 -42 11 7 9 9 -8 9
-41 0 -40 64 1 80 21 9 21 9 1 9 -12 1 -26 -4 -33 -11z"/>
<path d="M2310 920 c0 -27 5 -50 10 -50 6 0 10 23 10 50 0 28 -4 50 -10 50 -5
0 -10 -22 -10 -50z"/>
<path d="M2370 919 c0 -56 5 -62 13 -14 3 17 6 36 8 44 2 7 -2 16 -8 18 -9 3
-13 -10 -13 -48z"/>
<path d="M2422 958 c9 -7 19 -31 21 -53 3 -32 4 -30 3 10 -1 42 -4 50 -21 53
-18 4 -19 3 -3 -10z"/>
<path d="M2500 955 c-28 -33 1 -108 33 -88 6 3 1 10 -11 14 -26 10 -30 50 -7
69 29 24 46 4 43 -52 -3 -50 -5 -53 -33 -59 l-30 -7 32 -1 c40 -1 53 20 53 87
0 49 0 49 -34 50 -19 1 -39 -5 -46 -13z"/>
<path d="M2811 951 c-6 -11 -11 -29 -11 -40 0 -27 41 -54 66 -44 16 6 14 8
-11 13 -43 8 -47 40 -5 40 27 0 31 3 28 23 -4 30 -52 37 -67 8z m57 -8 c2 -8
-6 -13 -22 -13 -25 0 -33 10 -19 24 10 10 36 3 41 -11z"/>
<path d="M2943 963 c36 -6 34 -26 -4 -40 -38 -15 -37 -47 1 -50 16 -1 18 0 7
3 -22 7 -18 37 5 42 11 2 18 -5 20 -19 2 -12 8 -24 13 -26 7 -2 9 13 5 44 -5
47 -6 48 -40 49 -26 1 -28 1 -7 -3z"/>
<path d="M3093 920 c0 -30 2 -43 4 -27 2 15 2 39 0 55 -2 15 -4 2 -4 -28z"/>
<path d="M3210 962 c0 -5 7 -26 16 -47 8 -21 13 -48 10 -61 -11 -43 3 -25 34
42 33 74 33 74 22 74 -4 0 -14 -16 -21 -35 -15 -43 -27 -45 -36 -5 -6 28 -25
52 -25 32z"/>
</g>
</svg>
